<?xml version="1.0"?>
<svg xmlns:rdf="http://www.w3.org/1999/02/22-rdf-syntax-ns#" xmlns="http://www.w3.org/2000/svg" xmlns:cc="http://creativecommons.org/ns#" xmlns:dc="http://purl.org/dc/elements/1.1/" xmlns:svg="http://www.w3.org/2000/svg" id="svg5105" viewBox="0 0 744.09 1052.4" version="1.1">
  <g id="layer1">
    <g id="g5197" transform="translate(-2373 -375.74)">
      <path id="path5061" fill="#fc0" d="m2700.1 948.16-32.296 122.16 46.338-11.233-65.997 120.76 174.12-164.29-67.401 7.0209 39.317-73.018z"/>
      <path id="path5063" fill="#666" d="m2766.5 624c-30.735 0-58.037 14.71-75.25 37.469-14.594-9.2676-31.901-14.625-50.469-14.625-46.876 0-85.768 34.216-93.062 79.031-43.073 8.7073-75.531 46.765-75.531 92.406 0 52.073 42.24 94.281 94.312 94.281 21.236 0 40.832-7.0284 56.594-18.875 9.1676 2.9727 18.936 4.5938 29.094 4.5938 9.8334 0 19.338-1.5196 28.25-4.3125 16.72 15.104 38.881 24.312 63.188 24.312 24.68 0 47.163-9.4792 63.969-25 15.139 10.36 33.459 16.406 53.188 16.406 15.658 0 30.411-3.809 43.406-10.562 6.2741 1.3153 12.772 2 19.438 2 52.072 0 94.281-42.209 94.281-94.281 0-52.073-42.209-94.281-94.281-94.281-0.5112 0-1.022 0.0231-1.5314 0.0312-16.788-20.342-41.934-33.528-70.188-34.281-15.04-32.094-47.62-54.312-85.406-54.312z"/>
      <path id="path5065" style="block-progression:tb;color:#000000;text-transform:none;text-indent:0" d="m2766.4 619.98c-30.771 0-58.169 14.271-76.188 36.438-14.565-8.5325-31.45-13.562-49.531-13.562-47.894 0-87.757 34.34-96.437 79.75-43.6 10.064-76.125 49.079-76.125 95.688 0 54.234 44.047 98.281 98.281 98.281 21.379 0 41.177-6.8926 57.312-18.5 9.0039 2.7182 18.524 4.2188 28.406 4.2188 9.4809 0 18.632-1.3966 27.312-3.9062 17.216 14.849 39.622 23.906 64.125 23.906 24.598 0 47.043-9.1417 64.281-24.094 15.27 9.771 33.384 15.5 52.844 15.5 15.814 0 30.753-3.79 44-10.438 6.1241 1.1918 12.418 1.875 18.875 1.875 54.234 0 98.281-44.047 98.281-98.281 0-54.171-43.946-98.179-98.094-98.281-16.996-19.749-41.732-32.652-69.469-34.062-16.121-32.276-49.386-54.531-87.875-54.531zm0 8c36.216 0 67.413 21.306 81.812 52.031a4.0004 4.0004 0 0 0 3.5314 2.3125c27.061 0.72951 51.114 13.336 67.187 32.812a4.0004 4.0004 0 0 0 3.1563 1.4688c0.5879-0.009 1.0784-0.0312 1.4687-0.0312 49.911 0 90.281 40.37 90.281 90.281s-40.37 90.281-90.281 90.281c-6.4009 0-12.648-0.64501-18.656-1.9062a4.0004 4.0004 0 0 0 -2.6561 0.3437c-12.438 6.4602-26.563 10.125-41.563 10.125-18.918 0-36.434-5.82-50.937-15.75a4.0004 4.0004 0 0 0 -4.9689 0.375c-16.101 14.874-37.56 23.969-61.219 23.969-23.295 0-44.485-8.8145-60.5-23.281a4.0004 4.0004 0 0 0 -3.875 -0.84375c-8.5404 2.679-17.63 4.125-27.062 4.125-9.7392 0-19.093-1.557-27.875-4.4062a4.0004 4.0004 0 0 0 -3.6563 0.625c-15.096 11.346-33.835 18.062-54.188 18.062-49.911 0-90.281-40.37-90.281-90.281 0-43.755 31.062-80.174 72.312-88.5a4.0004 4.0004 0 0 0 3.1563 -3.25c6.9849-42.909 44.165-75.687 89.094-75.687 17.796 0 34.339 5.1272 48.313 14a4.0004 4.0004 0 0 0 5.3437 -0.96875c16.486-21.809 42.597-35.906 72.062-35.906z"/>
      <path id="path5067" fill="#808080" d="m2765.1 636.77c-35.258 0-65.632 21.442-79.562 52.312 0.1075 0.0695 0.2052 0.14877 0.3125 0.21875 16.009-21.79 41.405-35.875 70-35.875 28.683 0 54.152 14.184 70.156 36.094-0.219 0.039-0.4382 0.0844-0.6564 0.125 3.4635 4.8588 6.4671 10.076 8.9687 15.594 5.4215 0.15107 10.733 0.80256 15.875 1.9062 0.1567 0.0322 0.3123 0.0606 0.4688 0.0937 12.648 2.7877 24.298 8.3256 34.344 16-0.1342 0.0335-0.2725 0.0598-0.4064 0.0937 5.1962 3.7285 9.9347 7.9739 14.156 12.594 0.5101-0.007 1.0191-0.0312 1.5311-0.0312 52.164 0 94.438 38.201 94.438 85.312 0 12.126-2.7939 23.649-7.8436 34.094 11.193-14.02 17.812-31.208 17.812-49.812 0-47.112-42.273-85.312-94.437-85.312-0.4258 0-0.857 0.0262-1.2814 0.0312-15.792-18.911-38.852-31.105-64.719-31.969-14.102-30.408-44.229-51.469-79.156-51.469zm-123.94 21.125c-2.2098-0.036-4.4141 0.0385-6.6562 0.1875-34.258 2.277-62.254 25.821-73.063 57.594 13.681-23.059 37.392-39.05 65.313-40.906 16.436-1.0925 32.103 2.8613 45.594 10.594 3.2767-5.24 7.1138-10.086 11.375-14.469-12.492-8.0316-27.094-12.748-42.562-13zm128.62 29.844c-24.868 0.0657-47.757 10.099-64.156 26.531 1.8694 1.3418 3.7154 2.7172 5.4687 4.1875 17.623-12.541 39.981-18.892 63.5-16.25 49.606 5.5732 85.433 49.041 80.031 97.125-0.672 5.9793-1.9321 11.774-3.75 17.281 5.0969-9.4034 8.4577-19.901 9.7186-31.125 5.4022-48.084-30.425-91.583-80.031-97.156-3.6199-0.4067-7.2286-0.60314-10.781-0.59375zm-151.94 25.219c-6.9318 0.005-13.973 0.79948-21.031 2.4375-20.465 4.7496-37.744 15.896-50.062 30.719 0.8633-4.6006 2.1185-9.0522 3.6873-13.375-26.664 6.9561-48.436 25.436-59.312 49.594 12.852-17.277 31.994-29.865 54.219-34.5-12.477 15.784-19.475 35.483-19 56 5.4199-34.771 32.128-64.74 69.469-73.406 22.698-5.2676 45.308-1.736 64.094 8.3125 4.4141-2.5463 9.125-4.739 14.031-6.5625-15.57-12.217-35.298-19.233-56.094-19.219z"/>
      <path id="path5069" fill="#ff0" d="m2715.4 958.42-25.025 96.235 32.725-88.529 17.848-7.976zm29.013 100.66-20.421 3.3861-44.61 77.875 48.108-70.398z"/>
      <path id="path5071" style="block-progression:tb;color:#000000;text-transform:none;text-indent:0" d="m2699.8 944.17a4.0004 4.0004 0 0 0 -3.5313 2.9688l-32.281 122.16a4.0004 4.0004 0 0 0 4.8126 4.9062l37.531-9.0937-61.656 112.81a4.0004 4.0004 0 0 0 6.25 4.8438l174.12-164.28a4.0004 4.0004 0 0 0 -3.1563 -6.9063l-59.875 6.25 35.719-66.375a4.0004 4.0004 0 0 0 -3.4688 -5.875l-94.062-1.4062a4.0004 4.0004 0 0 0 -0.4062 0zm3.4062 8.0312 84.375 1.2812-36.188 67.188a4.0004 4.0004 0 0 0 3.9375 5.875l55.594-5.7813-147.09 138.81 53.875-98.562a4.0004 4.0004 0 0 0 -4.4688 -5.8125l-39.812 9.625 29.781-112.62z"/>
    </g>
  </g>
  <metadata>
    <rdf:RDF>
      <cc:Work>
        <dc:format>image/svg+xml</dc:format>
        <dc:type rdf:resource="http://purl.org/dc/dcmitype/StillImage"/>
        <cc:license rdf:resource="http://creativecommons.org/licenses/publicdomain/"/>
        <dc:publisher>
          <cc:Agent rdf:about="http://openclipart.org/">
            <dc:title>Openclipart</dc:title>
          </cc:Agent>
        </dc:publisher>
        <dc:title>Thundercloud</dc:title>
        <dc:date>2012-01-20T07:34:13</dc:date>
        <dc:description>Cloud, Thunder, Thundercloud, clip art, clipart, </dc:description>
        <dc:source>http://openclipart.org/detail/167269/thundercloud-by-halattas</dc:source>
        <dc:creator>
          <cc:Agent>
            <dc:title>halattas</dc:title>
          </cc:Agent>
        </dc:creator>
        <dc:subject>
          <rdf:Bag>
            <rdf:li>Cloud</rdf:li>
            <rdf:li>Thunder</rdf:li>
            <rdf:li>Thundercloud</rdf:li>
            <rdf:li>clip art</rdf:li>
            <rdf:li>clipart</rdf:li>
          </rdf:Bag>
        </dc:subject>
      </cc:Work>
      <cc:License rdf:about="http://creativecommons.org/licenses/publicdomain/">
        <cc:permits rdf:resource="http://creativecommons.org/ns#Reproduction"/>
        <cc:permits rdf:resource="http://creativecommons.org/ns#Distribution"/>
        <cc:permits rdf:resource="http://creativecommons.org/ns#DerivativeWorks"/>
      </cc:License>
    </rdf:RDF>
  </metadata>
</svg>
