<?xml version="1.0"?>
<svg xmlns:rdf="http://www.w3.org/1999/02/22-rdf-syntax-ns#" xmlns="http://www.w3.org/2000/svg" xmlns:cc="http://creativecommons.org/ns#" xmlns:xlink="http://www.w3.org/1999/xlink" xmlns:dc="http://purl.org/dc/elements/1.1/" xmlns:svg="http://www.w3.org/2000/svg" id="svg2" viewBox="0 0 409.31 610.52" version="1.1">
  <defs id="defs4">
    <filter id="filter3891" color-interpolation-filters="sRGB">
      <feGaussianBlur id="feGaussianBlur3893" stdDeviation="10.15612"/>
    </filter>
  </defs>
  <g id="layer1" transform="translate(-117.46 -354.64)">
    <path id="path3869" filter="url(#filter3891)" fill="#020203" d="m153.86 464.83c-1.8436-7.9887-11.603-4.7018 2.9884-36.102 55.217-55.525 301.65-67.579 333.95-20.63 14.061 13.745 12.834 28.496-2.9884 44.206 16.385 15.381 25.227 46.906-8.218 63.362 15.47 19.534 17.018 34.699-11.206 40.522-2.1124 33.25-2.5834 50.806-36.608 55.994 6.0913 33.628-14.439 46.056-23.907 51.574 9.1832 14.811 29.932 13.74-0.7471 44.943 35.549 7.499 48.456 24.847 23.907 44.943 15.942 5.4096 35.955 20.542 20.919 42.733 27.927 16.965 16.615 32.414-3.7355 36.838-0.40589 4.7571 1.0533 11.353-2.9884 12.525 8.764 18.508-16.97 28.249-27.643 28.734l-3.7355 5.8942c-11.287 30.686-16.152 23.367-23.907 33.155-9.248 13.647-1.5869 18.956 0 27.26-9.4433-5.2409-22.013-3.8005-20.172-33.155-8.7331-7.803-20.164-14.542 9.7122-37.575-5.6354-17.735 13.972-23.98 33.619-30.208-14.332-12.233-12.701-27.327-5.2297-43.469-20.243-11.402-46.859-0.78355-45.573-41.996-2.7876-12.794-65.206 8.4139-69.48-68.52-12.344 2.9771-57.989-0.62034-32.125-39.049-18.734-14.929-53.372-5.2093-47.067-58.942-8.2647-7.7725-40.399 15.429-14.942-36.102 0.38879-5.8283-58.485 10.154-17.93-53.784-25.381-1.3383-50.184-3.0184-26.895-33.155z"/>
    <path id="path3040" fill="#b7c7de" d="m207.02 555.93c100.54-61.053 196.47-36.777 211.43-28.571-78.17-3.9817-156.27 6.7294-222.14 58.571 1.1436-8.7041 1.6663-16.905 10.714-30z"/>
    <path id="path2996" fill="#929eb4" d="m163.45 471.64c-1.7627-7.745-11.093-4.5583 2.8571-35 52.792-53.831 288.41-65.517 319.29-20 13.443 13.326 12.271 27.626-2.8571 42.857 15.665 14.911 24.119 45.474-7.8571 61.429 14.791 18.938 16.27 33.64-10.714 39.286-2.0196 32.235-2.4699 49.255-35 54.286 5.8238 32.601-13.804 44.65-22.857 50 8.78 14.359 28.617 13.321-0.71429 43.571 33.988 7.2702 46.328 24.089 22.857 43.571 15.242 5.2446 34.376 19.916 20 41.429 26.701 16.448 15.886 31.424-3.5714 35.714-0.38806 4.6119 1.007 11.007-2.8571 12.143 8.3791 17.943-16.224 27.387-26.429 27.857l-3.5714 5.7143c-10.792 29.749-15.442 22.654-22.857 32.143-8.8418 13.23-1.5172 18.378 0 26.429-9.0286-5.081-21.047-3.6846-19.286-32.143-8.3496-7.5649-19.279-14.098 9.2857-36.429-5.3879-17.194 13.358-23.249 32.143-29.286-13.703-11.859-12.143-26.493-5-42.143-19.354-11.054-44.801-0.75964-43.571-40.714-2.6652-12.404-62.342 8.1572-66.429-66.429-11.801 2.8862-55.442-0.60141-30.714-37.857-17.911-14.473-51.029-5.0503-45-57.143-7.9017-7.5353-38.625 14.958-14.286-35 0.37172-5.6505-55.916 9.8444-17.143-52.143-24.266-1.2974-47.98-2.9263-25.714-32.143z"/>
    <path id="path3026" fill="#6a737a" d="m362.02 750.93c19.274-15.106 39.949-28.487 71.429-28.571-28.57-5.075-53.564 5.3502-76.429 25z"/>
    <path id="path3028" fill="#69717c" d="m314.17 732.71c41.296-58.044 92.5-50 92.5-50s-50.637-11.822-101.79 39.643c3.0952 3.0904 6.1905 5.4964 9.2857 10.357z"/>
    <path id="path3030" fill="#77808f" d="m297.02 684.85c51.339-49.583 99.286-44.643 99.286-44.643-83.939-16.613-133.68 37.726-133.57 37.857 2.9362 0.42548 12.426 12.804 34.286 6.7857z"/>
    <path id="path3032" fill="#77808f" d="m249.17 639.5c27.541-28.376 62.012-37.323 111.43-39.286-27.118-9.7132-125.68 15.373-133.21 28.929 5.8218 3.8638 9.6993 8.2832 21.786 10.357z"/>
    <path id="path3036" fill="#b7c8df" d="m163.45 471.64c48.807-41.513 123.86-56.371 210.71-47.857-32.431-12.221-112.25-22.664-215 28.571-1.274 9.6716 0.8175 15.305 4.2857 19.286z"/>
    <path id="path3042" fill="#bbd5f0" d="m175.6 539.5c68-68.927 235.71-61.429 235.71-61.429-9.8353 4.4259-67.83-37.084-223.57 27.857-4.544 10.694-11.866 18.61-12.143 33.571z"/>
    <path id="path3038" fill="#b7c7de" d="m163.81 489.85c106.6-98.19 319.61-38.86 318.57-12.85-85.16-54.36-292.74-20.76-318.57 12.85z"/>
    <path id="path3034" fill="#767f8e" d="m193.1 553.07c18.052-24.135 50.145-26.614 76.071-35-25.941 2.0083-49.392-5.113-87.857 31.786 5.009 2.6731 7.6888 3.4165 11.786 3.2143z"/>
    <path id="path2998" fill="#c3d5e9" d="m230.6 406.64c-12.408 13.19-4.5586 15.125-0.71428 19.286-3.0872 5.7143-17.806 11.429 3.5714 17.143-17.824 15.805-17.889 23.718-1.4286 24.286-0.73736 5.4868-14.5 16.985 7.1428 12.143-7.8403 11.667-13.391 23.333 5 35-1.2709 6.5728-13.484 16.565 13.571 14.286-10.091 15.522-27.186 33.898 12.143 29.286-24.767 51.4-1.6208 45.762 11.429 52.143-2.8702 10.008-8.3144 21.56 16.429 15-4.4278 9.009-23.346 17.112 0 27.857-1.6319 10.861-9.6644 26.345 21.429 13.571-8.9987 15.519-15.512 29.692 3.5714 30-1.4286 18.571 5.7143 27.619 21.429 27.143 3.757 3.6695 3.0815 9.8718 19.286 6.4286 2.2628 3.4787-6.7795 8.2136 10.714 10 1.2868 8.5522-11.026 19.824 7.1429 25 0.80122 6.7049-3.3462 17.259 13.571 11.429 0.56657 9.7011 10.104 8.637 20 7.1428-7.619 18.571-6.6667 33.333 2.8571 44.286l-7.1429 12.143c-8.2787 0.76888-16.716 1.3797-15.714 11.429-14.224 3.0186-13.225 10.604-8.5714 19.286-8.7269 3.4354-20.126 4.5327-14.286 20.714l2.1428 26.429c2.304-8.6203 0.48831-24.107 7.8572-24.286-2.5335-19.989 8.9955-14.665 15-19.286-0.61454-6.7768-6.2112-14.661 9.2857-17.857 0.0687-12.72 8.3442-9.0259 13.571-11.429 10.058-4.6691 11.093-13.205 7.8571-23.571-10.872-5.7544-3.5423-20.61 0-33.571-6.1116-7.7104 4.5152-23.146-23.571-20.714-1.2115-6.0247-6.6632-10.636-19.286-12.857 18.039-14.122 5.8501-22.909-7.8571-31.429-6.9048-14.319-13.81-18.297-20.714-13.571 5.4112-10.682 7.8828-21.192-18.571-30 8.9754-10.476 22.688-20.952-5-31.429 2.6892-20.291 3.2303-38.22-12.857-37.857 7.6915-32.174-11.021-14.473-18.571-17.857 8.1923-7.4711 5.3454-13.716-3.5714-19.286 20.352-10.353 82.455-21.414-1.4286-30 32.713-12.514 40.767-25.589-10-40 28.249-12.056 63.136-23.958 12.143-37.857 30.94-8.2385 24.649-17.718-1.4286-27.857 27.798-8.9219 21.287-21.656 15.714-34.286l12.143-11.429c-35.254 1.1748-66.651 6.2061-94.286 15z"/>
    <path id="path3044" fill="#bcd6f1" d="m452.02 572.35c-116.02-44.865-240.42 14.306-230.71 17.857-0.90077 7.008-1.4152 12.646-1.4286 21.429 57.821-32.461 119.1-60.174 232.14-39.286z"/>
    <path id="path3000" fill="#77808f" d="m422.02 391.64c26.111 10.561 32.306 57.705 2.8571 50 73.968 47.844 0 70 0 70 40.56 22.204 50.702 39.675 5.7143 48.571 17.872 37.066-11.334 44.172-33.571 55.714 5.0368 17.893 6.9899 35.948-23.571 55.714 23.951 3.99 40.437 11.021 13.571 35.714 17.946 8.8081 45.874 12.127 27.857 40.714 19.062 9.794 30.611 21.9 25 39.286 11.319 15.822 19.561 30.961-2.8571 39.286 3.8443 23.452-8.0203 32.622-25 37.143-4.5487 11.404-6.4785 25.426-20 27.857-17.656 8.956-13.347 15.716-12.857 22.857l8.0664 17.013c-4.0568-16.477-1.623-26.257 9.7908-31.299 8.1811-6.495 12.064-21.587 17.857-32.857-1.9266-1.6198 27.475 1.8223 27.857-25 1.1905-4.7619-0.58038-13.966 3.5714-14.286 21.118-6.2888 26.381-19.752 2.2295-35.043 13.705-16.851-4.588-39.351-20.173-41.385 31.593-29.071-9.5531-40.787-22.77-42.857 13.93-14.402 19.269-22.97 0.46175-44.372 19.558-11.729 25.753-28.723 23.11-49.199 19.873-4.218 35.124-11.615 34.877-54.286 25.378-8.3463 22.23-22.917 10.837-39.286 22.431-15.881 26.39-36.209 7.7705-62.857 34.958-42.622-35.014-66.116-60.628-67.143z"/>
    <path id="path3002" fill="#6a727d" d="m482.74 458.78c-28.509-12.635-57.449-25.098-107.14-29.286 32.184 2.1234 53.83-8.5196 115.71 15.714-3.6173 9.8452-5.8047 9.6806-8.5714 13.571z"/>
    <path id="path3004" fill="#69717a" d="m474.88 521.64c-96.206-45.104-147.09-28.784-197.86-15 129.66-20.71 164.71 11.929 207.86 40-0.00019-7.5926-1.513-15.521-10-25z"/>
    <path id="path3006" fill="#667079" d="m464.88 560.21c-53.883-29.432-86.875-17.083-125.71-16.429 48.861 2.15 104.16 5.0982 124.64 24.643z"/>
    <path id="path3008" fill="#616b77" d="m459.88 595.93c-90.266-38.039-167.58-3.5966-171.43 1.4286 95.399-17.267 130.22-3.0692 159.29 11.429 6.789-2.2297 8.9433-7.9354 12.143-12.857z"/>
    <path id="path3010" fill="#68727b" d="m430.6 616.64c-54.667-19.446-104.84-6.1266-152.86 22.857 45.06-18.048 90.233-35.429 151.07-4.2857 2.928-4.6353 1.3935-12.246 1.7857-18.571z"/>
    <path id="path3012" fill="#6a727d" d="m421.31 651.64c-52.177-4.3138-77.096 13.52-99.286 33.571 27.966-8.0502 55.035-25.398 88.214-16.071-11.175-5.0509 6.2-11.605 11.071-17.5z"/>
    <path id="path3014" fill="#69717c" d="m415.6 695.93c-58.389 1.2513-60.733 21.184-72.857 37.857 18.89-12.112 31.186-29.424 64.286-28.214 5.1798-3.2143 5.9296-6.4286 8.5714-9.6429z"/>
    <path id="path3016" fill="#69727b" d="m441.67 734.85c-33.323 1.5488-48.33 19.132-64.643 33.214 17.679-6.7243 32.406-22.322 51.786-17.143z"/>
    <path id="path3018" fill="#667079" d="m405.95 793.07c13.309-2.2512 15.264-13.928 39.643 0-6.4303-9.1117-11.727-19.24-45-4.2857z"/>
    <path id="path3020" fill="#6a737c" d="m454.17 798.78c-12.197-1.1655-20.823 3.9176-29.286 9.2857 18.333-3.8095 31.429-2.8572 39.286 2.8571-1.6526-6.9889-4.5485-11.802-10-12.143z"/>
    <path id="path3022" fill="#6a707c" d="m451.31 825.93c-5.2269-6.6495-19.74-2.8521-32.143-1.4286 8.8232 2.5374 21.266 4.4715 25 7.8571-1.4286-3.5714 0.95238-5.7143 7.1429-6.4286z"/>
    <path id="path3024" fill="#6b747d" d="m439.17 855.93c-26.112 8.0566-36.54 1.5493-50-2.1429 6.8416 7.1928 19.137 15.944 20 21.429 5.3918-8.7327 19.522-13.096 30-19.286z"/>
    <path id="path3816" fill="#6a727d" d="m198.45 399.5c-72.698 16.948-51.365 27.52-60 35.714-22.016-22.856 48.968-33.686 60-35.714z"/>
    <path id="path3818" fill="#69717a" d="m361.31 374.5c46.172 2.4113 185.36-2.988 154.29 45.714 9.9577-29.238-56.092-41.142-154.29-45.714z"/>
    <path id="path3820" fill="#69717a" d="m161.31 459.5c-42.635 16.823-52.828 28.413-36.429 35.714-9.1071-15.889 16.426-25.283 36.429-35.714z"/>
    <path id="path3822" fill="#69717a" d="m187.74 571.64c-68.04 13.52-5.1227-37.432 0-36.429-18.03 19.467-40.947 40.921 0 36.429z"/>
    <path id="path3824" fill="#69717a" d="m229.88 601.64c-19.418 6.0404-55.59 27.332-20 27.857-20.6 13.561-39.377-18.551 20-27.857z"/>
    <path id="path3826" fill="#69717a" d="m269.96 657.99c-16.721 4.9631-47.868 22.457-17.222 22.889-17.738 11.142-33.907-15.243 17.222-22.889z"/>
    <path id="path3839" fill="#69717a" d="m302.82 695.13c-14.987 4.132-42.904 18.697-15.436 19.056-15.899 9.2764-30.391-12.69 15.436-19.056z"/>
    <path id="path3841" fill="#69717a" d="m302.82 695.13c-14.987 4.132-42.904 18.697-15.436 19.056-15.899 9.2764-30.391-12.69 15.436-19.056z"/>
    <path id="path3843" fill="#69717a" d="m366.31 738.07c-19.418 6.0404-55.59 27.332-20 27.857-20.6 13.561-39.377-18.551 20-27.857z"/>
    <path id="path3845" fill="#69717a" d="m413.45 779.5c-19.418 6.0404-55.59 27.332-20 27.857-20.6 13.561-39.377-18.551 20-27.857z"/>
    <path id="path3847" fill="#69717a" d="m425.45 844.34c-42.601-16.908-57.966-15.432-51.003 1.1148 4.232-17.818 29.279-7.1963 51.003-1.1148z"/>
    <path id="path3849" fill="#69717a" d="m409.77 734.93c17.885-9.6789 58.386-20.696 33.905 5.1419 24.092-5.2724 14.224-41.138-33.905-5.1419z"/>
    <path id="path3851" fill="#69717a" d="m427.81 780.33c17.438-10.463 57.41-23.266 34.1 3.633 23.835-6.3358 12.386-41.729-34.1-3.633z"/>
    <path id="path3853" fill="#69717a" d="m396.57 676.81c18.19-9.559 57.77-19.628 31.01 6.8272 23.355-4.6289 19.412-43.119-31.01-6.8272z"/>
    <path id="path3855" fill="#69717a" d="m409.89 637.59c20.814-5.1819 65.323-7.9806 33.802 9.4328 26.168-0.61436 24.606-31.534-33.802-9.4328z"/>
    <path id="path3857" fill="#69717a" d="m432.73 573.2c26.571-2.6254 79.287 1.9928 34.31 17.787 30.483 3.9891 43.997-34.495-34.31-17.787z"/>
    <path id="path3859" fill="#69717a" d="m478.36 553.61c91.427-45.518-23.668-44.531-28.946-38.943 36.849 4.9195 81.072 7.6536 28.946 38.943z"/>
    <path id="path3861" fill="#69717a" d="m455.4 453.86c45.683-3.7108 59.944 2.1939 48.448 15.981 1.1636-18.277-25.895-15.444-48.448-15.981z"/>
    <path id="path3863" fill="#69717a" d="m400.83 860.52c20.114 2.998 59.117 18.504 24.027 24.469 22.432 10.249 36.075-24.358-24.027-24.469z"/>
    <path id="path3865" fill="#69717a" d="m390.45 877.91c-33.347-16.908-45.374-15.432-39.924 1.1148 3.3127-17.818 22.919-7.1963 39.924-1.1148z"/>
    <path id="path3867" fill="#69717a" d="m373.69 886.95c20.114 2.998 59.117 18.504 24.027 24.469 22.432 10.249 36.075-24.358-24.027-24.469z"/>
    <path id="path3908" d="m232.84 562.94c34.576-23.022 85.95-33.172 122.23-30.81-34.008 2.2588-82.664 12.048-122.23 30.81z" fill="#fff"/>
    <path id="path3910" fill="#fff" d="m212.64 526.58c38.005-23.022 94.474-33.172 134.35-30.81-37.381 2.2588-90.862 12.048-134.35 30.81z"/>
    <path id="path3912" d="m209.37 479.13c40.185-18.962 97.402-23.209 136.82-16.729-37.414-1.6248-91.621 2.5729-136.82 16.729z" fill="#fff"/>
    <path id="path3914" fill="#fff" d="m247.99 616.48c27.432-23.022 68.192-33.172 96.975-30.81-26.982 2.2588-65.585 12.048-96.975 30.81z"/>
    <path id="path3916" d="m268.2 661.94c25.146-23.022 62.509-33.172 88.893-30.81-24.733 2.2588-60.119 12.048-88.893 30.81z" fill="#fff"/>
  </g>
  <metadata>
    <rdf:RDF>
      <cc:Work>
        <dc:format>image/svg+xml</dc:format>
        <dc:type rdf:resource="http://purl.org/dc/dcmitype/StillImage"/>
        <cc:license rdf:resource="http://creativecommons.org/licenses/publicdomain/"/>
        <dc:publisher>
          <cc:Agent rdf:about="http://openclipart.org/">
            <dc:title>Openclipart</dc:title>
          </cc:Agent>
        </dc:publisher>
        <dc:title>tornado</dc:title>
        <dc:date>2011-01-15T02:05:49</dc:date>
        <dc:description>tornado cartoon style.</dc:description>
        <dc:source>http://openclipart.org/detail/104887/tornado-by-laabadon</dc:source>
        <dc:creator>
          <cc:Agent>
            <dc:title>laabadon</dc:title>
          </cc:Agent>
        </dc:creator>
        <dc:subject>
          <rdf:Bag>
            <rdf:li>cartoon</rdf:li>
            <rdf:li>clip art</rdf:li>
            <rdf:li>clipart</rdf:li>
            <rdf:li>tornado</rdf:li>
            <rdf:li>weather</rdf:li>
            <rdf:li>wind</rdf:li>
          </rdf:Bag>
        </dc:subject>
      </cc:Work>
      <cc:License rdf:about="http://creativecommons.org/licenses/publicdomain/">
        <cc:permits rdf:resource="http://creativecommons.org/ns#Reproduction"/>
        <cc:permits rdf:resource="http://creativecommons.org/ns#Distribution"/>
        <cc:permits rdf:resource="http://creativecommons.org/ns#DerivativeWorks"/>
      </cc:License>
    </rdf:RDF>
  </metadata>
</svg>
