<?xml version="1.0"?>
<svg xmlns:rdf="http://www.w3.org/1999/02/22-rdf-syntax-ns#" xmlns="http://www.w3.org/2000/svg" xmlns:cc="http://creativecommons.org/ns#" xmlns:dc="http://purl.org/dc/elements/1.1/" xmlns:svg="http://www.w3.org/2000/svg" id="svg2" viewBox="0 0 531.5 531.5" version="1.1">
  <g id="layer1" transform="translate(0 -520.86)">
    <g id="g3959">
      <path id="path3889" d="m9.1794 594.44c21.115 0 42.23-16 63.346-16h0.000879c21.115 0.00045 42.23 16 63.345 16h0.00088c21.115-0.00045 42.23-16 63.345-16h0.00088c21.115 0.00045 42.23 16 63.345 16h0.00088c21.115-0.00045 42.23-16 63.345-16h0.00088c21.115 0.00045 42.23 16 63.345 16h0.00088c21.115-0.00045 42.23-16 63.345-16h0.00088c21.115 0.00045 42.23 16 63.345 16v23.167h-0.00088c-21.115-0.00045-42.23-16-63.345-16h-0.00088c-21.115 0.00044-42.23 16-63.345 16h-0.00088c-21.115-0.00045-42.23-16-63.345-16h-0.00088c-21.115 0.00044-42.23 16-63.345 16h-0.00088c-21.115-0.00045-42.23-16-63.345-16h-0.00088c-21.115 0.00044-42.23 16-63.345 16h-0.00088c-21.115-0.00045-42.23-16-63.345-16h-0.000879c-21.115 0.00044-42.23 16-63.345 16v-23.167" fill="#002154"/>
      <path id="path3891" d="m9.1794 635.64c21.115 0 42.23-16 63.346-16h0.000791c21.115 0.0004 42.23 16 63.345 16h0.00079c21.115-0.0004 42.23-16 63.345-16h0.00079c21.115 0.0004 42.23 16 63.345 16h0.00079c21.115-0.0004 42.23-16 63.345-16h0.00079c21.115 0.0004 42.23 16 63.345 16h0.00079c21.115-0.0004 42.23-16 63.345-16h0.00079c21.115 0.0004 42.23 16 63.345 16v23.167h-0.00079c-21.115-0.0004-42.23-16-63.345-16h-0.00079c-21.115 0.0004-42.23 16-63.345 16h-0.00079c-21.115-0.0004-42.23-16-63.345-16h-0.00079c-21.115 0.0004-42.23 16-63.345 16h-0.00079c-21.115-0.0004-42.23-16-63.345-16h-0.00079c-21.115 0.0004-42.23 16-63.345 16h-0.00079c-21.115-0.0004-42.23-16-63.345-16h-0.000791c-21.115 0.0004-42.23 16-63.345 16v-23.167" fill="#003380"/>
      <path id="path3893" d="m9.1794 676.83c21.115 0 42.23-16 63.346-16h0.000703c21.115 0.00036 42.23 16 63.345 16h0.0007c21.115-0.00036 42.23-16 63.345-16h0.0007c21.115 0.00036 42.23 16 63.345 16h0.0007c21.115-0.00036 42.23-16 63.345-16h0.0007c21.115 0.00036 42.23 16 63.345 16h0.0007c21.115-0.00036 42.23-16 63.345-16h0.0007c21.115 0.00036 42.23 16 63.345 16v23.167h-0.0007c-21.115-0.00036-42.23-16-63.345-16h-0.0007c-21.115 0.00035-42.23 16-63.345 16h-0.0007c-21.115-0.00036-42.23-16-63.345-16h-0.0007c-21.115 0.00035-42.23 16-63.345 16h-0.0007c-21.115-0.00036-42.23-16-63.345-16h-0.0007c-21.115 0.00035-42.23 16-63.345 16h-0.0007c-21.115-0.00036-42.23-16-63.345-16h-0.000703c-21.115 0.00035-42.23 16-63.345 16v-23.167" fill="#04a"/>
      <path id="path3895" d="m9.1794 718.02c21.115 0 42.23-16 63.346-16h0.000615c21.115 0.00032 42.23 16 63.345 16h0.00062c21.115-0.00032 42.23-16 63.345-16h0.00062c21.115 0.00032 42.23 16 63.345 16h0.00062c21.115-0.00032 42.23-16 63.345-16h0.00062c21.115 0.00032 42.23 16 63.345 16h0.00062c21.115-0.00032 42.23-16 63.345-16h0.00062c21.115 0.00032 42.23 16 63.345 16v23.166h-0.00062c-21.115-0.00031-42.23-16-63.345-16h-0.00062c-21.115 0.00031-42.23 16-63.345 16h-0.00062c-21.115-0.00031-42.23-16-63.345-16h-0.00062c-21.115 0.00031-42.23 16-63.345 16h-0.00062c-21.115-0.00031-42.23-16-63.345-16h-0.00062c-21.115 0.00031-42.23 16-63.345 16h-0.00062c-21.115-0.00031-42.23-16-63.345-16h-0.000615c-21.115 0.00031-42.23 16-63.345 16v-23.166" fill="#0054d4"/>
      <path id="path3897" d="m9.1794 759.21c21.115 0 42.23-16 63.346-16h0.000527c21.115 0.00026 42.23 16 63.345 16h0.00053c21.115-0.00026 42.23-16 63.345-16h0.00053c21.115 0.00026 42.23 16 63.345 16h0.00053c21.115-0.00026 42.23-16 63.345-16h0.00053c21.115 0.00026 42.23 16 63.345 16h0.00053c21.115-0.00026 42.23-16 63.345-16h0.00053c21.115 0.00026 42.23 16 63.345 16v23.166h-0.00053c-21.115-0.00027-42.23-16-63.345-16h-0.00053c-21.115 0.00026-42.23 16-63.345 16h-0.00053c-21.115-0.00027-42.23-16-63.345-16h-0.00053c-21.115 0.00026-42.23 16-63.345 16h-0.00053c-21.115-0.00027-42.23-16-63.345-16h-0.00053c-21.115 0.00026-42.23 16-63.345 16h-0.00053c-21.115-0.00027-42.23-16-63.345-16h-0.000527c-21.115 0.00026-42.23 16-63.345 16v-23.166" fill="#06f"/>
      <path id="path3899" d="m9.1794 800.4c21.115 0 42.23-16 63.346-16h0.000439c21.115 0.00022 42.23 16 63.345 16h0.00044c21.115-0.00022 42.23-16 63.345-16h0.00044c21.115 0.00022 42.23 16 63.345 16h0.00044c21.115-0.00022 42.23-16 63.345-16h0.00044c21.115 0.00022 42.23 16 63.345 16h0.00044c21.115-0.00022 42.23-16 63.345-16h0.00044c21.115 0.00022 42.23 16 63.345 16v23.166h-0.00044c-21.115-0.00022-42.23-16-63.345-16h-0.00044c-21.115 0.00022-42.23 16-63.345 16h-0.00044c-21.115-0.00022-42.23-16-63.345-16h-0.00044c-21.115 0.00022-42.23 16-63.345 16h-0.00044c-21.115-0.00022-42.23-16-63.345-16h-0.00044c-21.115 0.00022-42.23 16-63.345 16h-0.00044c-21.115-0.00022-42.23-16-63.345-16h-0.000439c-21.115 0.00022-42.23 16-63.345 16v-23.166" fill="#2a7fff"/>
      <path id="path3901" d="m9.1794 841.6c21.115 0 42.23-16 63.346-16h0.000351c21.115 0.00017 42.23 16 63.345 16h0.00035c21.115-0.00017 42.23-16 63.345-16h0.00035c21.115 0.00017 42.23 16 63.345 16h0.00035c21.115-0.00017 42.23-16 63.345-16h0.00035c21.115 0.00017 42.23 16 63.345 16h0.00035c21.115-0.00017 42.23-16 63.345-16h0.00035c21.115 0.00017 42.23 16 63.345 16v23.166h-0.00035c-21.115-0.00018-42.23-16-63.345-16h-0.00035c-21.115 0.00018-42.23 16-63.345 16h-0.00035c-21.115-0.00018-42.23-16-63.345-16h-0.00035c-21.115 0.00018-42.23 16-63.345 16h-0.00035c-21.115-0.00018-42.23-16-63.345-16h-0.00035c-21.115 0.00018-42.23 16-63.345 16h-0.00035c-21.115-0.00018-42.23-16-63.345-16h-0.000351c-21.115 0.00018-42.23 16-63.345 16v-23.166" fill="#59f"/>
      <path id="path3903" d="m9.1794 882.79c21.115 0 42.23-16 63.346-16h0.000264c21.115 0.00013 42.23 16 63.345 16h0.00026c21.115-0.00013 42.23-16 63.345-16h0.00026c21.115 0.00013 42.23 16 63.345 16h0.00026c21.115-0.00013 42.23-16 63.345-16h0.00026c21.115 0.00013 42.23 16 63.345 16h0.00026c21.115-0.00013 42.23-16 63.345-16h0.00026c21.115 0.00013 42.23 16 63.345 16v23.166h-0.00026c-21.115-0.00013-42.23-16-63.345-16h-0.00026c-21.115 0.00014-42.23 16-63.345 16h-0.00026c-21.115-0.00013-42.23-16-63.345-16h-0.00026c-21.115 0.00014-42.23 16-63.345 16h-0.00026c-21.115-0.00013-42.23-16-63.345-16h-0.00026c-21.115 0.00014-42.23 16-63.345 16h-0.00026c-21.115-0.00013-42.23-16-63.345-16h-0.000264c-21.115 0.00014-42.23 16-63.345 16v-23.166" fill="#80b3ff"/>
      <path id="path3905" d="m9.1794 923.98c21.115 0 42.23-16 63.346-16h0.000176c21.115 0.00009 42.23 16 63.345 16h0.00018c21.115-0.00009 42.23-16 63.345-16h0.00018c21.115 0.00009 42.23 16 63.345 16h0.00018c21.115-0.00009 42.23-16 63.345-16h0.00018c21.115 0.00009 42.23 16 63.345 16h0.00018c21.115-0.00009 42.23-16 63.345-16h0.00018c21.115 0.00009 42.23 16 63.345 16v23.166h-0.00018c-21.115-0.00009-42.23-16-63.345-16h-0.00018c-21.115 0.00009-42.23 16-63.345 16h-0.00018c-21.115-0.00009-42.23-16-63.345-16h-0.00018c-21.115 0.00009-42.23 16-63.345 16h-0.00018c-21.115-0.00009-42.23-16-63.345-16h-0.00018c-21.115 0.00009-42.23 16-63.345 16h-0.00018c-21.115-0.00009-42.23-16-63.345-16h-0.000176c-21.115 0.00009-42.23 16-63.345 16v-23.166" fill="#acf"/>
      <path id="path3907" d="m9.1794 965.17c21.115 0 42.23-16 63.346-16h0.000088c21.115 0.00004 42.23 16 63.346 16h0.00009c21.115-0.00004 42.23-16 63.346-16h0.00009c21.115 0.00004 42.23 16 63.346 16h0.00009c21.115-0.00004 42.23-16 63.346-16h0.00009c21.115 0.00004 42.23 16 63.346 16h0.00009c21.115-0.00004 42.23-16 63.346-16h0.00009c21.115 0.00004 42.23 16 63.346 16v23.166h-0.00009c-21.115-0.00004-42.23-16-63.346-16h-0.00009c-21.115 0.00005-42.23 16-63.346 16h-0.00009c-21.115-0.00004-42.23-16-63.346-16h-0.00009c-21.115 0.00005-42.23 16-63.346 16h-0.00009c-21.115-0.00004-42.23-16-63.346-16h-0.00009c-21.115 0.00005-42.23 16-63.346 16h-0.00009c-21.115-0.00004-42.23-16-63.346-16h-0.000088c-21.115 0.00005-42.23 16-63.346 16v-23.166" fill="#d5e5ff"/>
      <path id="path3887" d="m9.1794 553.25c21.115 0 42.23-16 63.346-16h0.000968c21.115 0.00049 42.23 16 63.345 16h0.00097c21.115-0.00049 42.23-16 63.345-16h0.00097c21.115 0.00049 42.23 16 63.345 16h0.00097c21.115-0.00049 42.23-16 63.345-16h0.00097c21.115 0.00049 42.23 16 63.345 16h0.00097c21.115-0.00049 42.23-16 63.345-16h0.00097c21.115 0.00049 42.23 16 63.345 16v23.167h-0.00097c-21.115-0.00049-42.23-16-63.345-16h-0.00097c-21.115 0.00049-42.23 16-63.345 16h-0.00097c-21.115-0.00049-42.23-16-63.345-16h-0.00097c-21.115 0.00049-42.23 16-63.345 16h-0.00097c-21.115-0.00049-42.23-16-63.345-16h-0.00097c-21.115 0.00049-42.23 16-63.345 16h-0.00097c-21.115-0.00049-42.23-16-63.345-16h-0.000967c-21.115 0.00049-42.23 16-63.345 16v-23.167" fill="#00112a"/>
    </g>
  </g>
  <metadata>
    <rdf:RDF>
      <cc:Work>
        <dc:format>image/svg+xml</dc:format>
        <dc:type rdf:resource="http://purl.org/dc/dcmitype/StillImage"/>
        <cc:license rdf:resource="http://creativecommons.org/licenses/publicdomain/"/>
        <dc:publisher>
          <cc:Agent rdf:about="http://openclipart.org/">
            <dc:title>Openclipart</dc:title>
          </cc:Agent>
        </dc:publisher>
        <dc:title>water</dc:title>
        <dc:date>2010-10-29T10:07:43</dc:date>
        <dc:description>www.photothailand.net</dc:description>
        <dc:source>http://openclipart.org/detail/93091/water-by-photothailand</dc:source>
        <dc:creator>
          <cc:Agent>
            <dc:title>photothailand</dc:title>
          </cc:Agent>
        </dc:creator>
        <dc:subject>
          <rdf:Bag>
            <rdf:li>clip art</rdf:li>
            <rdf:li>clipart</rdf:li>
            <rdf:li>www.photothailand.net</rdf:li>
          </rdf:Bag>
        </dc:subject>
      </cc:Work>
      <cc:License rdf:about="http://creativecommons.org/licenses/publicdomain/">
        <cc:permits rdf:resource="http://creativecommons.org/ns#Reproduction"/>
        <cc:permits rdf:resource="http://creativecommons.org/ns#Distribution"/>
        <cc:permits rdf:resource="http://creativecommons.org/ns#DerivativeWorks"/>
      </cc:License>
    </rdf:RDF>
  </metadata>
</svg>
