<?xml version="1.0"?>
<svg xmlns:rdf="http://www.w3.org/1999/02/22-rdf-syntax-ns#" xmlns="http://www.w3.org/2000/svg" xmlns:cc="http://creativecommons.org/ns#" xmlns:xlink="http://www.w3.org/1999/xlink" xmlns:dc="http://purl.org/dc/elements/1.1/" xmlns:svg="http://www.w3.org/2000/svg" id="svg13195" viewBox="0 0 110 110" version="1.1">
  <defs id="defs13197">
    <linearGradient id="linearGradient12598" y2="1234.7" xlink:href="#linearGradient12261" gradientUnits="userSpaceOnUse" x2="3237.5" gradientTransform="translate(-13.443 159.57)" y1="1230.5" x1="3232.2"/>
    <linearGradient id="linearGradient12261">
      <stop id="stop12263" stop-color="#845a4a" offset="0"/>
      <stop id="stop12269" stop-color="#814d35" offset=".52373"/>
      <stop id="stop12265" stop-color="#845a4a" offset="1"/>
    </linearGradient>
    <filter id="filter12221" color-interpolation-filters="sRGB">
      <feGaussianBlur id="feGaussianBlur12223" stdDeviation="1.988037"/>
    </filter>
    <linearGradient id="linearGradient12600" y2="1382.8" xlink:href="#linearGradient12261" gradientUnits="userSpaceOnUse" x2="3302.7" y1="1371.9" x1="3294"/>
    <filter id="filter12303" color-interpolation-filters="sRGB">
      <feGaussianBlur id="feGaussianBlur12305" stdDeviation="2.1344863"/>
    </filter>
    <linearGradient id="linearGradient12602" y2="1375.3" gradientUnits="userSpaceOnUse" x2="3264.4" y1="1365.6" x1="3273.2">
      <stop id="stop12317" stop-color="#744a3a" offset="0"/>
      <stop id="stop12319" stop-color="#855c4c" offset="1"/>
    </linearGradient>
    <linearGradient id="linearGradient12604" y2="1416" xlink:href="#linearGradient12261" gradientUnits="userSpaceOnUse" x2="3272.3" y1="1416" x1="3248.9"/>
    <filter id="filter12347" color-interpolation-filters="sRGB">
      <feGaussianBlur id="feGaussianBlur12349" stdDeviation="0.99966591"/>
    </filter>
  </defs>
  <g id="layer1" transform="translate(-179.29 -340.22)">
    <g id="windy" transform="translate(-406.17 -241.06)">
      <rect id="rect6250" opacity="0" style="color:black" height="110" width="110" y="581.28" x="585.45" stroke-width="6.8"/>
      <g id="g12351" transform="matrix(.87804 0 0 .87804 -2214.3 -575.36)">
        <path id="path5458" d="m3223.5 1398.4c-0.053-0.035-0.078-0.2511-0.072-0.63 0.01-0.5517-0.035-0.816-0.1595-0.9514-0.1753-0.1911-0.6312-0.2286-0.9446-0.078-0.1328 0.064-0.1752 0.071-0.1981 0.035-0.045-0.071-0.038-0.3204 0.019-0.729 0.075-0.4981 0.066-0.5177 0.1356-1.0387 0.045-0.3398 0.065-0.5493 0.056-0.5899-0.012-0.049-0.1646 0.055-0.307 0.2103-0.1041 0.1131-0.1312 0.1817-0.1938 0.4907-0.1311 0.6479-0.3574 1.2237-0.6535 1.663-0.2965 0.44-0.4113 0.5391-0.5313 0.4592-0.093-0.084-0.04-0.4048-0.017-0.5165 0.054-0.2644 0.012-0.4344-0.1332-0.5383l-0.084-0.06-0.1889 0.1364c-0.2843 0.2051-0.8715 0.8634-1.1365 1.2742-0.046 0.071-0.1255 0.1825-0.1766 0.2474l-0.093 0.1177-0.082-0.055c-0.088-0.059-0.1152-0.1746-0.1186-0.5057 0-0.1024-0.017-0.1707-0.048-0.2092-0.026-0.031-0.04-0.073-0.031-0.093 0.01-0.02 0-0.019-0.016 0-0.017 0.021-0.1154 0.037-0.2189 0.036-0.4794 0-1.6135 0.6728-2.4754 1.4785-0.1515 0.1416-0.1687 0.1483-0.2463 0.097-0.043-0.028-0.057-0.061-0.048-0.1131 0.069-0.1439 0.2492-0.4041 0.3252-0.4957 0.5285-0.8525 0.8929-1.594 1.2777-2.1184 0.01 0 0.01-0.056-0.01-0.1237-0.023-0.1349-0.01-0.1303-0.3915-0.1043-0.098 0.01-0.1403-0.012-0.181-0.081-0.04-0.068-0.045-0.1056-0.021-0.1551 0.017-0.036 0.2021-0.2284 0.4103-0.4278 0.702-0.6722 1.0509-1.1172 1.0101-1.2887-0.017-0.073-0.1029-0.048-0.4164 0.12-0.2017 0.108-0.2282 0.1146-0.2766 0.07-0.029-0.027-0.051-0.078-0.049-0.1113 0.01-0.081 0.3304-0.407 0.8778-0.8812 0.5612-0.4859 0.9035-0.8461 0.5489-0.5774-0.053 0.041-0.2583 0.1375-0.4556 0.2161-0.3177 0.1264-0.3657 0.1374-0.4176 0.095-0.052-0.043-0.05-0.062 0.03-0.1946 0.099-0.1649 0.1286-0.2978 0.1122-0.5005-0.01-0.1268-0.023-0.1443-0.1523-0.2125-0.088-0.046-0.2459-0.077-0.4202-0.08-0.7343-0.016-1.0614-0.071-1.0884-0.182-0.028-0.116 0.1157-0.2131 0.7805-0.5269 0.8413-0.397 0.9963-0.5199 0.9425-0.7469-0.025-0.1024 0-0.1221 0.4202-0.2943 0.3347-0.1385 0.6304-0.3307 0.7134-0.4637 0.046-0.074 0.043-0.3344-0.01-0.5489-0.081-0.348 0.051-0.4266 0.6441-0.3852 0.6415 0.044 1.0424-0.102 1.2779-0.4675 0.046-0.072 0.1048-0.1332 0.1307-0.1374 0.026 0 0.03-0.011 0.01-0.014-0.026 0-0.031-0.082-0.017-0.2414 0.041-0.4513-0.06-0.9719-0.2604-1.3472-0.063-0.1174-0.074-0.1596-0.05-0.1908 0.049-0.065 0.155-0.087 0.2089-0.043 0.112 0.092 0.4323 0.1478 0.7956 0.1395 0.4595-0.01 0.7167 0.02 1.043 0.1234 0.239 0.076 0.248 0.076 0.4705-0.016 0.2616-0.1083 0.4224-0.2629 0.5274-0.5068 0.083-0.194 0.1819-0.2242 0.2616-0.08 0.03 0.054 0.1053 0.1345 0.1674 0.1788 0.062 0.044 0.1186 0.1039 0.1253 0.1327 0.01 0.028-0.018 0.1395-0.056 0.2459-0.087 0.2458-0.053 0.4255 0.1019 0.5507 0.1804 0.1456 0.2155 0.1409 0.4657-0.061 0.3926-0.3164 0.8095-0.7347 1.1734-1.1776 0.5058-0.4781 0.7311-0.9602 1.0615-1.5284 0.1263-0.215 0.2535-0.3988 0.2825-0.4086 0.08-0.026 0.2338 0.062 0.282 0.1623 0.032 0.066 0.031 0.1159-0.01 0.1964-0.026 0.06-0.061 0.1122-0.076 0.1176-0.027 0.01-0.5356 0.606-0.8608 1.0102-0.5608 0.6969-1.1401 1.3201-1.6071 1.7289-0.1463 0.1282-0.1615 0.1661-0.082 0.2048 0.093 0.045 0.4372 0.1249 0.7346 0.1699 0.5161 0.079 0.604 0.1096 0.9816 0.3502 0.2011 0.1281 0.4654 0.2702 0.5871 0.3157 0.2447 0.092 0.302 0.1491 0.2522 0.2549-0.036 0.076-0.1361 0.093-0.5516 0.091-0.2169 0-0.4607 0.098-0.5522 0.223-0.058 0.079-0.061 0.1072-0.017 0.2163 0.027 0.069 0.1106 0.1832 0.186 0.2542 0.3292 0.3106 0.7633 0.7696 0.9449 0.9993 0.2298 0.2905 0.338 0.4824 0.4354 0.7719 0.086 0.255 0.415 0.7746 0.63 0.9942 0.1442 0.1472 0.1563 0.1701 0.139 0.2639-0.014 0.077-0.044 0.1108-0.118 0.1358-0.054 0.018-0.11 0.022-0.1234 0.01-0.035-0.038-0.6945-0.1275-1.0655-0.1446-0.6404-0.029-1.2232 0.043-1.3311 0.1672-0.057 0.065-0.1004 0.2968-0.082 0.4363 0.01 0.041 0.014 0.1604 0.02 0.2653 0.012 0.2246 0.1091 0.5068 0.3697 1.0722 0.096 0.2075 0.2126 0.5059 0.2599 0.6631 0.081 0.2711 0.083 0.2903 0.029 0.3692-0.032 0.046-0.085 0.093-0.1186 0.1034-0.061 0.02-0.4383 0.038-0.6629 0.032-0.3304-0.01-0.4575 0.1712-0.6149 0.8733-0.1321 0.5885-0.1634 0.6478-0.3294 0.6239-0.1938-0.028-0.2738 0.021-0.4283 0.2623-0.079 0.1225-0.1542 0.2277-0.1683 0.2338-0.014 0.01-0.088 0.1179-0.1652 0.2486-0.1372 0.2336-0.5509 0.8299-0.6617 0.9537-0.063 0.07-0.1576 0.1108-0.1972 0.084z" fill="url(#linearGradient12598)"/>
        <path id="path12211" opacity=".2" filter="url(#filter12221)" d="m3245.6 1370.8c1.5582 1.8121 4.8546 1.9224 7.0889 1.0741 1.0457-0.397 1.9684-1.4738 2.1481-2.5778 0.5062-3.1105-3.1432-5.6697-3.437-8.8074-0.326-3.4817-0.2013-7.5413 1.9333-10.311 3.7735-4.8963 10.574-8.0122 16.756-7.9481 8.9659 0.093 18.728 4.8205 24.059 12.03 5.6556 7.6475 6.1972 18.744 4.7259 28.141-1.4837 9.4762-13.211 25.563-13.211 25.563s11.924-4.4299 15.574-9.2371c5.1571-6.7926 6.7622-16.176 6.6592-24.704-0.1037-8.5863-2.2607-17.754-7.3037-24.704-3.931-5.4175-10.149-9.3981-16.541-11.385-6.4274-1.9982-13.657-1.6081-20.193 0-4.945 1.2168-10.206 3.234-13.533 7.0889-3.1223 3.617-3.927 8.8223-4.7259 13.533-0.6824 4.024-2.6611 9.1497 0 12.244z" fill="#e6e6e6"/>
        <path id="path5454" d="m3298.2 1388.1c-0.088-0.088-0.035-0.4578 0.1534-1.0805 0.2749-0.9064 0.3111-1.3676 0.1302-1.6602-0.2552-0.4129-1.1334-0.7279-1.8196-0.6526-0.2906 0.032-0.3775 0.021-0.4055-0.052-0.054-0.1415 0.075-0.5504 0.3783-1.1937 0.3804-0.7811 0.3709-0.8187 0.7508-1.6407 0.2479-0.5362 0.3845-0.8715 0.3845-0.9438 0-0.088-0.3493 0-0.7014 0.1771-0.2572 0.1292-0.3424 0.2275-0.6094 0.7033-0.56 0.9975-1.2733 1.8235-2.0599 2.385-0.7876 0.5624-1.0593 0.6626-1.2579 0.464-0.1436-0.1911 0.1103-0.6909 0.2067-0.863 0.2296-0.4069 0.2263-0.7111-0.011-0.9632l-0.1367-0.1456-0.4347 0.1204c-0.6543 0.1814-2.1151 0.9433-2.8274 1.4748-0.1236 0.092-0.3316 0.2321-0.4622 0.3108l-0.2375 0.1432-0.1366-0.1367c-0.1455-0.1455-0.1449-0.3522 0-0.9011 0.046-0.1697 0.047-0.2912 0-0.3722-0.035-0.066-0.044-0.1431-0.018-0.171 0.025-0.028 0.011-0.031-0.032-0.01-0.043 0.025-0.244 0-0.4467-0.062-0.9399-0.2732-3.484 0.2168-5.5533 1.0696-0.3638 0.15-0.4007 0.1516-0.529 0.023-0.072-0.071-0.083-0.1334-0.041-0.2132 0.2025-0.1996 0.6782-0.5294 0.8703-0.6386 1.436-1.1154 2.4978-2.1381 3.4985-2.7912 0.018 0.01 0.039-0.088 0.048-0.207 0.017-0.2359 0.049-0.2187-0.7206-0.3896-0.1964-0.044-0.2699-0.098-0.3177-0.2343-0.047-0.1341-0.039-0.1996 0.031-0.2679 0.051-0.05 0.5038-0.2653 1.0058-0.4792 1.6927-0.7211 2.5857-1.2629 2.5857-1.5689 0-0.1292-0.1799-0.136-0.8741-0.033-0.4469 0.067-0.502 0.063-0.5759-0.038-0.045-0.062-0.065-0.1563-0.044-0.2108 0.05-0.1314 0.8389-0.4891 2.1357-0.9689 1.3291-0.4917 2.1697-0.8969 1.3476-0.6496-0.1233 0.037-0.5716 0.084-0.996 0.1044-0.683 0.033-0.7825 0.024-0.8646-0.075-0.084-0.1006-0.069-0.131 0.1487-0.3053 0.2711-0.2175 0.3915-0.4205 0.4538-0.7645 0.039-0.2152 0.022-0.2512-0.2001-0.4356-0.1513-0.1254-0.4475-0.2629-0.7881-0.3658-1.4354-0.434-2.0526-0.7058-2.0537-0.9043 0-0.2074 0.3268-0.288 1.7794-0.4377 1.8382-0.1894 2.2001-0.3064 2.2001-0.7112 0-0.1828 0.064-0.1996 0.9628-0.2533 0.7223-0.043 1.3928-0.1966 1.6181-0.3704 0.1247-0.096 0.2396-0.5287 0.2419-0.9107 0-0.6198 0.2986-0.6768 1.4452-0.2792 1.2395 0.4297 2.0957 0.4097 2.7289-0.064 0.1235-0.092 0.268-0.1618 0.3209-0.1543 0.053 0.01 0.064 0 0.024-0.019-0.049-0.022-0.023-0.1533 0.08-0.4082 0.2918-0.7224 0.3369-1.6384 0.1167-2.37-0.069-0.2289-0.071-0.3047-0.01-0.3433 0.1274-0.081 0.3455-0.059 0.4308 0.044 0.1772 0.2135 0.7805 0.484 1.498 0.6716 0.908 0.2373 1.3991 0.4302 1.992 0.7825 0.4341 0.2579 0.4518 0.2623 0.9318 0.2337 0.5647-0.034 0.9527-0.1998 1.2726-0.5447 0.2545-0.2742 0.462-0.2695 0.5514 0.013 0.034 0.1059 0.1442 0.2806 0.2458 0.3882s0.1844 0.2376 0.1841 0.2888c-0.0004 0.051-0.1015 0.2201-0.2247 0.3751-0.2847 0.3581-0.3031 0.6735-0.057 0.9664 0.2865 0.3405 0.3578 0.3525 0.9434 0.1581 0.9189-0.3049 1.933-0.7648 2.8546-1.2945 1.2168-0.5094 1.8844-1.1811 2.7986-1.9364 0.3485-0.2851 0.684-0.5184 0.7456-0.5184 0.1683 0 0.4302 0.2324 0.4784 0.4246 0.032 0.1267 0.01 0.2085-0.1002 0.322-0.079 0.084-0.1708 0.1521-0.2048 0.1521-0.057 0-1.3349 0.704-2.1625 1.1914-1.4268 0.8403-2.8557 1.5487-3.9638 1.965-0.3474 0.1305-0.3949 0.1847-0.2568 0.2928 0.1612 0.1262 0.8006 0.4488 1.3641 0.6883 0.9775 0.4154 1.1355 0.5159 1.7653 1.1228 0.3354 0.3232 0.7883 0.7045 1.0064 0.8471 0.4382 0.2867 0.5236 0.414 0.3765 0.5611-0.1053 0.1053-0.3104 0.077-1.1262-0.1559-0.4256-0.1215-0.9506-0.094-1.189 0.062-0.1516 0.099-0.1689 0.1435-0.1358 0.3475 0.021 0.1285 0.132 0.364 0.2469 0.5233 0.502 0.6957 1.1409 1.6948 1.3907 2.175 0.316 0.6074 0.4392 0.9844 0.4954 1.5167 0.05 0.469 0.4542 1.5099 0.7743 1.9919 0.2146 0.3233 0.2276 0.3679 0.1499 0.5131-0.064 0.1195-0.1373 0.159-0.2951 0.159-0.1155 0-0.226-0.026-0.2456-0.058-0.051-0.082-1.3053-0.5959-2.0261-0.8299-1.2445-0.4041-2.4238-0.6064-2.6934-0.4621-0.1423 0.076-0.3356 0.4347-0.3643 0.6755-0.01 0.071-0.046 0.2728-0.085 0.4493-0.082 0.3775-0.022 0.8976 0.2263 1.9764 0.091 0.3958 0.1817 0.9537 0.2013 1.2397 0.034 0.493 0.028 0.5255-0.1155 0.6259-0.083 0.058-0.2097 0.1055-0.2813 0.105-0.1281 0-0.8787-0.1804-1.3173-0.3153-0.6448-0.1984-0.9785 0.029-1.6153 1.1017-0.5339 0.8991-0.6231 0.9798-0.9382 0.8481-0.3677-0.1536-0.5477-0.1171-0.9638 0.1958-0.2114 0.1588-0.4092 0.2907-0.4397 0.2929-0.031 0-0.2287 0.1459-0.4405 0.3193-0.3784 0.3096-1.4697 1.0654-1.745 1.2085-0.1561 0.081-0.3614 0.096-0.4269 0.03z" fill="url(#linearGradient12600)"/>
        <path id="path12206" opacity=".2" filter="url(#filter12303)" d="m3230.9 1350.7s-19.403 2.7183-26.438 8.7813c-5.5914 4.8195-10.478 12.382-10.031 19.75 4.2818 30.593 23.763 33.739 50.438 31-16.096 7.7528-24.635 7.9207-42.531 5.1563 17.646 13.466 47.964 6.4911 62.885-2.5721 17.553-10.198 33.283-29.242 25.834-47.866-2.3136-5.3984-7.4963-9.5626-12.781-12.125-3.8659-1.8743-12.75-1.8437-12.75-1.8437 1.5984 19.025-14.867 29.835-22.781 30.688-7.4273 0.5491-16.06 0.09-21.875-4.5625-2.8663-2.2932-4.8242-6.3699-4.5625-10.031 0.2143-2.9981 2.9342-5.2985 4.875-7.5937 2.8237-3.3394 9.7188-8.7812 9.7188-8.7813zm41.91 4.6832c12.96 12.268 2.4717 29.282-9.0974 36.754-8.4149 5.3139-18.77 8.4775-28.719 8.2187-9.3638-0.2434-19.76-2.7185-26.594-9.125-4.1362-6.4882-6.6323-13.576-0.9063-20.812 4.9417 16.424 9.559 17.701 25.531 20.656 7.734 0.875 16.534-1.8648 24.281-4.8437 3.8168-2.0187 7.4624-4.7483 10.031-8.2187 5.6858-7.2936 7.2287-13.447 5.4724-22.629z" fill="#e6e6e6"/>
        <path id="path5456" d="m3260.1 1369.8c0.06-0.083 0.3669-0.088 0.8966-0.016 0.7713 0.1049 1.1501 0.074 1.3639-0.1107 0.3015-0.261 0.4427-1.0144 0.2923-1.5613-0.064-0.2315-0.066-0.3034-0.01-0.3357 0.1075-0.063 0.4564-0.011 1.0178 0.1513 0.6832 0.2067 0.7125 0.1941 1.4289 0.3952 0.4673 0.1312 0.7571 0.1983 0.8158 0.1889 0.072-0.012-0.046-0.2833-0.2352-0.5459-0.1384-0.1917-0.2292-0.248-0.6499-0.4028-0.8823-0.3242-1.6453-0.7952-2.2035-1.3601-0.5587-0.5659-0.6755-0.7731-0.5402-0.9601 0.1374-0.1403 0.5748-0.0006 0.727 0.055 0.36 0.1333 0.6063 0.091 0.78-0.1341l0.1003-0.13-0.1544-0.337c-0.2325-0.5072-1.0409-1.5929-1.565-2.1015-0.088-0.091-0.2312-0.239-0.3122-0.3347l-0.1471-0.174 0.093-0.1283c0.099-0.1374 0.2672-0.1634 0.7316-0.1151 0.1436 0.015 0.2423 0 0.3024-0.046 0.049-0.037 0.1104-0.054 0.1359-0.038 0.023 0.021 0.026 0 0-0.027-0.023-0.034-0.029-0.1983-0.01-0.3705 0.099-0.7982-0.63-2.7983-1.5916-4.3658-0.1687-0.276-0.1752-0.3053-0.088-0.4262 0.047-0.069 0.098-0.085 0.168-0.06 0.1882 0.1383 0.5183 0.4808 0.6318 0.6225 1.0918 1.0197 2.0602 1.7475 2.7206 2.4741 0 0.016 0.076 0.021 0.1743 0.012 0.1935-0.017 0.1837 0.011 0.2221-0.6355 0.01-0.165 0.044-0.2317 0.149-0.2879 0.1026-0.056 0.1567-0.058 0.2213-0.01 0.043 0.038 0.2811 0.3739 0.5199 0.7534 0.8056 1.2793 1.3616 1.9332 1.6098 1.8932 0.1045-0.017 0.087-0.1634-0.087-0.7133-0.1121-0.3539-0.1164-0.3991-0.044-0.4723 0.041-0.046 0.1188-0.072 0.1652-0.063 0.1131 0.024 0.5063 0.6168 1.0644 1.6064 0.5721 1.0142 1.0105 1.6433 0.7027 1.0086-0.046-0.096-0.1427-0.4527-0.2144-0.7945-0.1156-0.5497-0.1216-0.6316-0.052-0.711 0.071-0.081 0.098-0.073 0.2671 0.081 0.2139 0.1891 0.3923 0.2627 0.6793 0.2685 0.1798 0 0.2068-0.014 0.3273-0.219 0.082-0.1393 0.1549-0.3974 0.1941-0.6871 0.1649-1.221 0.305-1.7571 0.4659-1.784 0.1681-0.028 0.2761 0.228 0.5871 1.3865 0.3932 1.4666 0.5353 1.745 0.8637 1.6922 0.148-0.024 0.1701 0.026 0.3309 0.7481 0.1291 0.5804 0.3411 1.1043 0.5114 1.2645 0.097 0.086 0.4602 0.1254 0.7704 0.078 0.5033-0.078 0.588 0.154 0.4149 1.136-0.187 1.0616-0.059 1.7536 0.4073 2.2055 0.088 0.091 0.1663 0.1964 0.1673 0.24 0.0007 0.045 0.01 0.052 0.019 0.017 0.012-0.043 0.1212-0.039 0.3416 0.012 0.6241 0.1426 1.3731 0.06 1.9379-0.2142 0.177-0.085 0.2379-0.097 0.2772-0.053 0.082 0.093 0.092 0.2726 0.02 0.3552-0.151 0.1709-0.291 0.6963-0.3496 1.3029-0.074 0.7676-0.1667 1.1911-0.3752 1.7179-0.1526 0.3859-0.1539 0.4009-0.068 0.7865 0.101 0.4536 0.2863 0.7468 0.6077 0.9614 0.2561 0.1703 0.2787 0.3398 0.062 0.449-0.082 0.041-0.209 0.1535-0.2826 0.2503-0.073 0.097-0.1711 0.1785-0.2105 0.1868-0.041 0.01-0.1919-0.053-0.3336-0.1333-0.3277-0.1842-0.5859-0.1582-0.7914 0.08-0.2421 0.2739-0.2395 0.336-0.01 0.786 0.367 0.7057 0.8724 1.4685 1.4223 2.1471 0.5718 0.9207 1.2037 1.3748 1.9356 2.018 0.2772 0.2449 0.5101 0.4868 0.5175 0.5374 0.022 0.1368-0.1324 0.3794-0.2823 0.4433-0.099 0.042-0.1683 0.032-0.2743-0.039-0.078-0.053-0.1473-0.1169-0.1502-0.1461-0.01-0.046-0.7452-0.9913-1.2485-1.5991-0.8677-1.048-1.6286-2.1149-2.1107-2.9596-0.1514-0.2646-0.2012-0.2966-0.2711-0.1702-0.081 0.1476-0.2597 0.708-0.3806 1.1964-0.2095 0.8471-0.2705 0.9884-0.6808 1.5784-0.2188 0.314-0.4687 0.7313-0.5561 0.9269-0.1753 0.3929-0.2675 0.4788-0.4064 0.3783-0.099-0.072-0.1028-0.2418-0.02-0.9339 0.043-0.3612-0.047-0.7835-0.2053-0.9565-0.1005-0.1101-0.1365-0.1206-0.2997-0.065-0.1013 0.033-0.2781 0.1544-0.3923 0.2685-0.499 0.498-1.2263 1.1465-1.5832 1.4117-0.4515 0.3355-0.7414 0.4847-1.1659 0.5997-0.374 0.1013-1.1657 0.5652-1.5151 0.8877-0.234 0.2165-0.2685 0.2328-0.3967 0.1885-0.1056-0.036-0.1466-0.091-0.1674-0.2187-0.015-0.093-0.01-0.1867 0.015-0.2067 0.06-0.051 0.3132-1.1366 0.4091-1.7519 0.1656-1.0623 0.1761-2.0453 0.024-2.2453-0.08-0.1056-0.3964-0.2156-0.5955-0.2075-0.059 0-0.2274 0-0.3755-0.01-0.3169-0.017-0.7311 0.099-1.5739 0.4412-0.3092 0.1256-0.7499 0.2718-0.9795 0.325-0.3956 0.092-0.4228 0.091-0.5228-0.012-0.056-0.062-0.1132-0.156-0.1219-0.2145-0.016-0.1046 0.032-0.7363 0.084-1.1097 0.077-0.549-0.1513-0.7901-1.1044-1.1669-0.799-0.3159-0.876-0.3778-0.8102-0.6507 0.077-0.3183 0.023-0.4596-0.2844-0.7564-0.1561-0.1512-0.2891-0.2942-0.2952-0.3183-0.01-0.024-0.148-0.1668-0.3165-0.3157-0.301-0.2661-1.0559-1.0534-1.2079-1.2581-0.086-0.1161-0.1246-0.2807-0.08-0.3424z" fill="url(#linearGradient12602)"/>
        <path id="path5460" d="m3266.3 1410.9c0 0.084-0.1893 0.244-0.5649 0.4688-0.5468 0.3271-0.7734 0.5405-0.8156 0.768-0.06 0.3211 0.2354 0.8751 0.6112 1.1479 0.1591 0.1156 0.1973 0.1604 0.1783 0.2094-0.037 0.095-0.2864 0.24-0.7282 0.4235-0.5427 0.217-0.5549 0.24-1.1158 0.4777-0.366 0.155-0.5856 0.2602-0.6183 0.2962-0.04 0.044 0.1739 0.1579 0.4295 0.229 0.1873 0.049 0.2735 0.041 0.6215-0.075 0.7299-0.2438 1.4587-0.3326 2.1044-0.2566 0.6467 0.076 0.8273 0.1486 0.8363 0.3377-0.015 0.1601-0.3673 0.2942-0.4931 0.3364-0.2984 0.099-0.4343 0.2518-0.4303 0.4845v0.1344l0.271 0.1365c0.4078 0.206 1.4801 0.4864 2.074 0.5485 0.1031 0.01 0.2701 0.034 0.3708 0.054l0.183 0.036 0.01 0.1299c0.01 0.1383-0.087 0.2409-0.4089 0.4476-0.099 0.064-0.1551 0.1238-0.1701 0.1837-0.012 0.049-0.043 0.091-0.068 0.094-0.026 0-0.019 0.01 0.013 0.018 0.032 0.01 0.1201 0.1117 0.1943 0.233 0.3446 0.5611 1.8334 1.4674 3.2497 1.9783 0.2491 0.09 0.2681 0.1058 0.274 0.2277 0 0.068-0.017 0.1046-0.076 0.1246-0.1912 0.01-0.5772-0.043-0.7223-0.075-1.2195-0.094-2.2109-0.064-3.0046-0.1917-0.01-0.012-0.059 0.026-0.1172 0.082-0.1152 0.1096-0.1228 0.087 0.1828 0.52 0.078 0.1101 0.09 0.1707 0.052 0.2602-0.037 0.089-0.071 0.1172-0.1364 0.1195-0.048 0-0.3708-0.096-0.7176-0.2162-1.1692-0.4067-1.8589-0.5403-1.9974-0.3878-0.058 0.064 0.028 0.1493 0.4206 0.4116 0.2527 0.169 0.2784 0.1957 0.2696 0.2796 0 0.052-0.038 0.1071-0.074 0.1247-0.085 0.043-0.639-0.1359-1.502-0.4828-0.8843-0.3561-1.4862-0.5344-0.965-0.2856 0.078 0.037 0.3227 0.2166 0.5433 0.3985 0.3549 0.2925 0.4006 0.3418 0.3968 0.4281 0 0.088-0.025 0.097-0.2121 0.085-0.2335-0.014-0.3852 0.032-0.5718 0.1756-0.1162 0.09-0.1248 0.1149-0.097 0.3074 0.019 0.1309 0.104 0.3333 0.2271 0.5386 0.5187 0.8652 0.7033 1.2796 0.6141 1.3791-0.093 0.1038-0.293 0-1.0842-0.5866-1.0013-0.7369-1.2344-0.8422-1.4175-0.6407-0.082 0.091-0.1221 0.071-0.5941-0.3092-0.3792-0.3051-0.7826-0.5318-0.9733-0.5471-0.1056-0.01-0.3586 0.155-0.5324 0.3442-0.2821 0.307-0.4547 0.2021-0.8461-0.5144-0.423-0.7745-0.8585-1.1517-1.3879-1.2022-0.1032-0.01-0.2067-0.04-0.2292-0.07-0.023-0.028-0.032-0.028-0.02-0.01 0.014 0.033-0.058 0.087-0.2243 0.1672-0.4721 0.2279-0.9088 0.6637-1.1299 1.1277-0.069 0.1453-0.1025 0.1838-0.15 0.1756-0.1005-0.016-0.1986-0.1269-0.1946-0.2168 0.01-0.1866-0.1698-0.594-0.4424-1.0119-0.3449-0.5288-0.5023-0.8469-0.6383-1.2904-0.1-0.3248-0.1065-0.3351-0.3585-0.5378-0.2965-0.2385-0.5648-0.3313-0.8802-0.3038-0.2508 0.022-0.3519-0.075-0.2689-0.2558 0.031-0.067 0.053-0.2054 0.053-0.3044 0-0.1 0.015-0.2018 0.039-0.227 0.023-0.026 0.15-0.063 0.2816-0.085 0.3036-0.05 0.4554-0.1985 0.4652-0.4558 0.012-0.2991-0.019-0.3372-0.3985-0.5053-0.5955-0.2636-1.3086-0.4932-2.0072-0.646-0.8363-0.2966-1.4725-0.2638-2.2694-0.301-0.3024-0.017-0.5751-0.051-0.6059-0.079-0.084-0.076-0.1091-0.3103-0.046-0.4278 0.042-0.077 0.091-0.1069 0.1956-0.1151 0.077-0.01 0.1537 0 0.1706 0.017 0.028 0.026 0.9827 0.2551 1.6159 0.3842 1.0907 0.2263 2.1226 0.5199 2.8626 0.8142 0.232 0.092 0.2804 0.086 0.2603-0.03-0.024-0.1358-0.1958-0.5855-0.3682-0.9596-0.299-0.6489-0.3323-0.7704-0.3716-1.3575-0.021-0.3127-0.074-0.7074-0.1181-0.8771-0.089-0.3409-0.074-0.4429 0.066-0.4497 0.1005 0 0.1894 0.1018 0.4904 0.5869 0.1571 0.2531 0.431 0.4767 0.6203 0.5068 0.1206 0.019 0.1492 0 0.2248-0.1118 0.048-0.073 0.099-0.241 0.1141-0.372 0.064-0.5737 0.1981-1.3602 0.2909-1.7123 0.1157-0.4458 0.2263-0.6889 0.439-0.9794 0.1874-0.256 0.4566-0.9574 0.5151-1.3422 0.039-0.2581 0.053-0.2863 0.1573-0.3234 0.085-0.031 0.1403-0.017 0.2183 0.057 0.058 0.052 0.1009 0.115 0.096 0.1396-0.016 0.063 0.3807 0.8871 0.6339 1.3296 0.4371 0.764 0.9331 1.398 1.1326 1.448 0.105 0.027 0.3637-0.065 0.4868-0.1717 0.036-0.031 0.1466-0.1149 0.2454-0.1855 0.2114-0.151 0.417-0.4371 0.781-1.0867 0.1332-0.2385 0.3407-0.5572 0.4602-0.7085 0.2062-0.2609 0.2239-0.2743 0.3406-0.2594 0.068 0.01 0.1529 0.04 0.1877 0.075 0.063 0.059 0.3561 0.4872 0.5135 0.7528 0.2315 0.3904 0.5006 0.4279 1.3027 0.1817 0.6726-0.2065 0.7534-0.2063 0.8509 0 0.1136 0.2428 0.2198 0.306 0.5685 0.3383 0.1773 0.016 0.3352 0.04 0.3515 0.053 0.016 0.014 0.1797 0.031 0.3638 0.04 0.3283 0.019 1.2138 0.1339 1.4157 0.1872 0.1145 0.03 0.2232 0.1157 0.2261 0.178z" fill="url(#linearGradient12604)"/>
        <path id="path12323" opacity=".48012" d="m3261.8 1356.8-0.3126 0.2812s6.4773 7.2545 9.5626 11c1.6676 2.0244 4.8437 6.2188 4.8437 6.2188l0.3437-0.2188s-3.194-4.2094-4.875-6.25c-3.0987-3.7617-9.5625-11.031-9.5624-11.031z" style="block-progression:tb;color:black;text-transform:none;text-indent:0" fill="#520"/>
        <path id="path12345" opacity=".15" filter="url(#filter12347)" d="m3211.1 1401.1c28.622 7.6603 51.912 4.4884 71.088-21.114-6.0784 27.481-53.112 37.157-71.088 21.114z" fill="#fff"/>
      </g>
    </g>
  </g>
  <metadata>
    <rdf:RDF>
      <cc:Work>
        <dc:format>image/svg+xml</dc:format>
        <dc:type rdf:resource="http://purl.org/dc/dcmitype/StillImage"/>
        <cc:license rdf:resource="http://creativecommons.org/licenses/publicdomain/"/>
        <dc:publisher>
          <cc:Agent rdf:about="http://openclipart.org/">
            <dc:title>Openclipart</dc:title>
          </cc:Agent>
        </dc:publisher>
        <dc:title>weather icon - windy</dc:title>
        <dc:date>2012-06-14T11:50:51</dc:date>
        <dc:description>clip art, clipart, icon, weather, windy, </dc:description>
        <dc:source>http://openclipart.org/detail/170683/weather-icon---windy-by-gnokii-170683</dc:source>
        <dc:creator>
          <cc:Agent>
            <dc:title>gnokii</dc:title>
          </cc:Agent>
        </dc:creator>
        <dc:subject>
          <rdf:Bag>
            <rdf:li>clip art</rdf:li>
            <rdf:li>clipart</rdf:li>
            <rdf:li>icon</rdf:li>
            <rdf:li>weather</rdf:li>
            <rdf:li>windy</rdf:li>
          </rdf:Bag>
        </dc:subject>
      </cc:Work>
      <cc:License rdf:about="http://creativecommons.org/licenses/publicdomain/">
        <cc:permits rdf:resource="http://creativecommons.org/ns#Reproduction"/>
        <cc:permits rdf:resource="http://creativecommons.org/ns#Distribution"/>
        <cc:permits rdf:resource="http://creativecommons.org/ns#DerivativeWorks"/>
      </cc:License>
    </rdf:RDF>
  </metadata>
</svg>
