<?xml version="1.0"?>
<svg xmlns:rdf="http://www.w3.org/1999/02/22-rdf-syntax-ns#" xmlns="http://www.w3.org/2000/svg" xmlns:cc="http://web.resource.org/cc/" xmlns:dc="http://purl.org/dc/elements/1.1/" xmlns:sodipodi="http://inkscape.sourceforge.net/DTD/sodipodi-0.dtd" xmlns:svg="http://www.w3.org/2000/svg" id="svg2" sodipodi:version="0.32" height="341.89pt" width="250.28pt" sodipodi:docname="fireIcon.svg" sodipodi:docbase="/home/piotr">
  <sodipodi:namedview id="base" bordercolor="#666666" borderopacity="1.0" showguides="true" pagecolor="#ffffff"/>
  <path id="path2043" sodipodi:nodetypes="cccccc" fill-rule="evenodd" fill="#e73900" d="m58.955 347.23c-67.992-104.38 14.105-113.7-6.836-256.61 51.361 67.42 65.691 150.12 87.261 174.57 14.88 19.21 22.21 42.4 20.21 66.22-0.2 18.85 23.63 41.7 17.11 59.3-34.64-27.75-94.229-9.66-117.74-43.48z"/>
  <path id="path2041" sodipodi:nodetypes="cccccccc" fill-rule="evenodd" fill="#e73900" d="m161.78 377.71c0.39-19.99-23.8-28.66-33.53-44.27-16.11-11.93-21.21-30.49-21.57-48.77-1.31-29.23 24.75-203.54 62.71-250.35-14.55 71.88 21.57 167.64 43.88 199.32 15.1 24.61 20.78 52.95 15.34 80.84-2.67 22.24-21.1 35.61-31.07 55.56-9.97 12.02-23.54 13.16-35.76 7.67z"/>
  <path id="path2063" sodipodi:nodetypes="cccccsc" fill-rule="evenodd" fill="#e73900" d="m175.56 387.49c5.79-17.36-5.66-44.89-9.27-61-9.78-14.5-8.84-32.02-4.13-48.08 6.94-25.87 8.09-147.98 120.03-205.32-86.82 85.18-29.17 154.41-19.77 187.75 5.49 25.33 2.68 51.73-9.7 74.52-17.09 31.45-62.73 48.79-77.16 52.13z"/>
  <path id="path1305" sodipodi:nodetypes="cccccccc" fill-rule="evenodd" fill="#e78c00" d="m157.12 377.31c0.29-16.32-18-23.4-25.36-36.14-12.19-9.74-16.05-24.89-16.32-39.81-0.99-23.87 23.32-150.05 42.83-204.39-13.31 123.18 20.92 136.86 37.79 162.72 11.43 20.1 15.72 43.23 11.6 66-2.02 18.16-10.73 34.71-18.27 51-7.54 9.81-23.03 5.1-32.27 0.62z"/>
  <path id="path2061" sodipodi:nodetypes="ccccs" fill-rule="evenodd" fill="#e78c00" d="m86.963 353.93c-69.841-71.71 6.257-76.7-13.113-175.18 23.003 46.42 42.08 81.29 50.45 114.25 12.4 11.63 55.23 82.68 52.66 95.56-26.99-15.37-69.89-13.99-89.997-34.63z"/>
  <path id="path2051" sodipodi:nodetypes="ccccs" fill-rule="evenodd" fill="#e7e100" d="m100.91 349.61c-41.778-39.66-10.578-62.95-10.952-112.48 11.552 43.35 48.082 54.03 47.612 80.08 6.03 7.79 37.63 63.34 34.99 70.48-14.05-11.25-55.82-23.05-71.65-38.08z"/>
  <path id="path2045" sodipodi:nodetypes="ccccscc" fill-rule="evenodd" fill="#e78c00" d="m168.06 344.26c-7.34-10.88-6.63-24.02-3.09-36.07 5.2-19.41 28.07-127.32 60.74-150.79-23.59 44.36 7.43 112.59 14.48 137.6 4.12 19.01 5.27 41.49-7.28 55.92-18.95 21.78-42.88 34.47-56.29 37.51-8.52 5.98-5.85-32.08-8.56-44.17z"/>
  <path id="path1310" sodipodi:nodetypes="cccccccc" fill-rule="evenodd" fill="#e7e100" d="m156.26 378.51c0.59-9.99-10.43-14.78-14.62-22.77-7.22-6.26-9.2-15.64-9-24.78-0.01-14.64-0.51-105.88 18.03-128.56-8.2 35.66 22.69 88.81 32.38 105.07 6.49 12.59 8.54 26.86 5.45 40.69-1.69 11.07-7.44 20.99-12.46 30.77-4.87 5.82-14.23 2.55-19.78-0.42z"/>
  <path id="path2047" sodipodi:nodetypes="cccccccc" fill-rule="evenodd" fill="#e7e100" d="m165.08 379.78c4.75-6.95-1.14-15.18-0.7-22.75-2.5-7.65 0.12-15.27 4.23-21.78 6.32-10.57 17.44-89.1 40.63-97.45-21.35 22.18 15.72 81.49 15.68 97.42-0.76 11.89-15.23 27.96-23.44 36.61-6.01 7.26-17.91 14.23-25.77 19.12-6.03-3.66-7.91-6.62-10.63-11.17z"/>
  <path id="path2049" sodipodi:nodetypes="cccccc" fill-rule="evenodd" fill="#ffff9e" d="m157.08 371.83c-14.76-23.24-9.28-49.17-3.01-77.45 2.86 19.19 14.77 42.48 21.5 50.12 4.65 5.99 6.94 13.23 6.31 20.67-0.06 5.89-3.05 13.02-5.08 18.51-10.82-8.66-12.38-1.29-19.72-11.85z"/>
  <path id="path2065" sodipodi:nodetypes="ccscc" fill-rule="evenodd" fill="#ffff9e" d="m173.67 360.31c11.43-25.05 0.11-44.76 26.31-64.41-7.82 18.21 10.07 46.97 8.12 56.95-3.27 16.77-25.88 29.25-31.6 30.54 1.37-13.79-7.68-11.17-2.83-23.08z"/>
  <path id="path2067" sodipodi:nodetypes="ccc" fill-rule="evenodd" fill="#ffff9e" d="m92.05 278.34c61.45 77.71 60.09 38.48 84.46 105.03-116.15-51.71-64.02-47.05-84.46-105.03z"/>
  <metadata>
    <rdf:RDF>
      <cc:Work>
        <dc:format>image/svg+xml</dc:format>
        <dc:type rdf:resource="http://purl.org/dc/dcmitype/StillImage"/>
        <cc:license rdf:resource="http://creativecommons.org/licenses/publicdomain/"/>
        <dc:publisher>
          <cc:Agent rdf:about="http://openclipart.org/">
            <dc:title>Openclipart</dc:title>
          </cc:Agent>
        </dc:publisher>
        <dc:title>Fire Icon</dc:title>
        <dc:date>2006-12-24T07:00:12</dc:date>
        <dc:description>unedited from http://commons.wikimedia.org/wiki/Image:FireIcon.svg</dc:description>
        <dc:source>http://openclipart.org/detail/2242/fire-icon-by-zeimusu</dc:source>
        <dc:creator>
          <cc:Agent>
            <dc:title>zeimusu</dc:title>
          </cc:Agent>
        </dc:creator>
        <dc:subject>
          <rdf:Bag>
            <rdf:li>cartoon</rdf:li>
            <rdf:li>clip art</rdf:li>
            <rdf:li>clipart</rdf:li>
            <rdf:li>externalsource</rdf:li>
            <rdf:li>fire</rdf:li>
            <rdf:li>image</rdf:li>
            <rdf:li>media</rdf:li>
            <rdf:li>png</rdf:li>
            <rdf:li>public domain</rdf:li>
            <rdf:li>svg</rdf:li>
          </rdf:Bag>
        </dc:subject>
      </cc:Work>
      <cc:License rdf:about="http://creativecommons.org/licenses/publicdomain/">
        <cc:permits rdf:resource="http://creativecommons.org/ns#Reproduction"/>
        <cc:permits rdf:resource="http://creativecommons.org/ns#Distribution"/>
        <cc:permits rdf:resource="http://creativecommons.org/ns#DerivativeWorks"/>
      </cc:License>
    </rdf:RDF>
  </metadata>
</svg>
